# xmcd
#
# Track frame offsets:
# 182
# 3712
# 20235
# 32242
# 42677
# 52735
# 57697
# 63457
# 68210
# 71620
# 79447
# 82360
# 93450
# 98190
# 102202
# 109740
# 116947
# 122657
# 128010
# 133332
# 136005
# 138997
# 140722
# 144055
# 146055
# 148415
# 151725
# 157232
# 160692
# 163770
#
# Disc length: 2278 seconds
#
#
# Revision: 0
# Processed by: cddbd v1.5.1PL2 Copyright (c) Steve Scherf et al.
# Submitted via: FreeRIP 2.945 
#
DISCID=d308e41e
DTITLE=Richard Bohringer - Leo découvre le blues
DYEAR=1997
DGENRE=Story
TTITLE0=01-Le Blues de Léo
TTITLE1=02-Léo Hardy remet en place les bretelles...
TTITLE2=03-Mon cher Léo...
TTITLE3=04-Lewis H... était né le 4 juillet 1895
TTITLE4=05-La communauté noire
TTITLE5=06-Quand il a eu dix-neuf ans
TTITLE6=07-Quelques années plus tard
TTITLE7=08-C'est quoi cette histoire de diable
TTITLE8=09-On suppose que le blues est né dans le Delta du Mississipi
TTITLE9=10-Au début des annés 1930
TTITLE10=11-C'était la guerre
TTITLE11=12-Quand le Fox chantait à côté de toi
TTITLE12=13-Léo lève le nez vers Madame Hill
TTITLE13=14-A l'époque où je l'ai rencontré
TTITLE14=15-Quand le Fox est tombé malade
TTITLE15=16-Léo referme le cahier
TTITLE16=17-Ed est assis sur son lit
TTITLE17=18-Le vieil Ed rit en silence
TTITLE18=19-Le blues de Léo
TTITLE19=20-La guitare de Fox
TTITLE20=21-Chant du coton
TTITLE21=22-Lonesome train
TTITLE22=23-Le gospel de Fox
TTITLE23=24-Valse de la Jeune Fille
TTITLE24=25-Le blues de Fox
TTITLE25=26-Le blues du crossroad
TTITLE26=27-1920
TTITLE27=28-Jug Band
TTITLE28=29-Vers le nord
TTITLE29=30-Le blues de la ville
EXTD=
EXTT0=
EXTT1=
EXTT2=
EXTT3=
EXTT4=
EXTT5=
EXTT6=
EXTT7=
EXTT8=
EXTT9=
EXTT10=
EXTT11=
EXTT12=
EXTT13=
EXTT14=
EXTT15=
EXTT16=
EXTT17=
EXTT18=
EXTT19=
EXTT20=
EXTT21=
EXTT22=
EXTT23=
EXTT24=
EXTT25=
EXTT26=
EXTT27=
EXTT28=
EXTT29=
PLAYORDER=
